<mxfile host="65bd71144e">
    <diagram id="dgKtDqCFBu3ZIFpIms6P" name="Page-1">
        <mxGraphModel dx="1064" dy="985" grid="1" gridSize="10" guides="1" tooltips="1" connect="1" arrows="1" fold="1" page="1" pageScale="1" pageWidth="1100" pageHeight="850" math="0" shadow="0">
            <root>
                <mxCell id="0"/>
                <mxCell id="1" parent="0"/>
                <mxCell id="iOsyZ8hW2PodxWPjTbM5-6" style="edgeStyle=orthogonalEdgeStyle;rounded=0;orthogonalLoop=1;jettySize=auto;html=1;entryX=0;entryY=0.5;entryDx=0;entryDy=0;exitX=0.5;exitY=1;exitDx=0;exitDy=0;" parent="1" source="iOsyZ8hW2PodxWPjTbM5-1" target="iOsyZ8hW2PodxWPjTbM5-5" edge="1">
                    <mxGeometry relative="1" as="geometry"/>
                </mxCell>
                <mxCell id="iOsyZ8hW2PodxWPjTbM5-9" value="ERRORS" style="edgeLabel;html=1;align=center;verticalAlign=middle;resizable=0;points=[];" parent="iOsyZ8hW2PodxWPjTbM5-6" vertex="1" connectable="0">
                    <mxGeometry x="-0.6861" relative="1" as="geometry">
                        <mxPoint y="38" as="offset"/>
                    </mxGeometry>
                </mxCell>
                <mxCell id="iOsyZ8hW2PodxWPjTbM5-8" value="" style="edgeStyle=orthogonalEdgeStyle;rounded=0;orthogonalLoop=1;jettySize=auto;html=1;" parent="1" source="iOsyZ8hW2PodxWPjTbM5-1" target="iOsyZ8hW2PodxWPjTbM5-7" edge="1">
                    <mxGeometry relative="1" as="geometry"/>
                </mxCell>
                <mxCell id="iOsyZ8hW2PodxWPjTbM5-10" value="&lt;div&gt;NO ERRORS OR&lt;/div&gt;&lt;div&gt;ONLY WARNINGS&lt;br&gt;&lt;/div&gt;" style="edgeLabel;html=1;align=center;verticalAlign=middle;resizable=0;points=[];" parent="iOsyZ8hW2PodxWPjTbM5-8" vertex="1" connectable="0">
                    <mxGeometry x="-0.2333" relative="1" as="geometry">
                        <mxPoint x="10" as="offset"/>
                    </mxGeometry>
                </mxCell>
                <mxCell id="iOsyZ8hW2PodxWPjTbM5-1" value="&lt;div&gt;VALIDATOR&lt;/div&gt;&lt;div&gt;- Counts placeholders&lt;/div&gt;&lt;div&gt;- Check placeholder format&lt;/div&gt;&lt;div&gt;- Check flags&lt;/div&gt;&lt;div&gt;- Check there are at least the same amount of params as ph&lt;br&gt;&lt;/div&gt;" style="rounded=0;whiteSpace=wrap;html=1;verticalAlign=middle;" parent="1" vertex="1">
                    <mxGeometry x="200" y="270" width="210" height="120" as="geometry"/>
                </mxCell>
                <mxCell id="iOsyZ8hW2PodxWPjTbM5-4" style="edgeStyle=orthogonalEdgeStyle;rounded=0;orthogonalLoop=1;jettySize=auto;html=1;entryX=0;entryY=0.5;entryDx=0;entryDy=0;" parent="1" source="iOsyZ8hW2PodxWPjTbM5-3" target="iOsyZ8hW2PodxWPjTbM5-1" edge="1">
                    <mxGeometry relative="1" as="geometry"/>
                </mxCell>
                <mxCell id="iOsyZ8hW2PodxWPjTbM5-3" value="INPUT" style="ellipse;whiteSpace=wrap;html=1;" parent="1" vertex="1">
                    <mxGeometry x="30" y="290" width="120" height="80" as="geometry"/>
                </mxCell>
                <mxCell id="iOsyZ8hW2PodxWPjTbM5-13" style="edgeStyle=orthogonalEdgeStyle;rounded=0;orthogonalLoop=1;jettySize=auto;html=1;entryX=0;entryY=0.5;entryDx=0;entryDy=0;" parent="1" source="iOsyZ8hW2PodxWPjTbM5-5" target="iOsyZ8hW2PodxWPjTbM5-15" edge="1">
                    <mxGeometry relative="1" as="geometry">
                        <mxPoint x="890" y="540" as="targetPoint"/>
                    </mxGeometry>
                </mxCell>
                <mxCell id="iOsyZ8hW2PodxWPjTbM5-14" value="THROW ERROR" style="edgeLabel;html=1;align=center;verticalAlign=middle;resizable=0;points=[];" parent="iOsyZ8hW2PodxWPjTbM5-13" vertex="1" connectable="0">
                    <mxGeometry x="-0.3167" y="2" relative="1" as="geometry">
                        <mxPoint x="29" y="2" as="offset"/>
                    </mxGeometry>
                </mxCell>
                <mxCell id="iOsyZ8hW2PodxWPjTbM5-5" value="ERROR &amp;amp; WARNING HANDLING" style="rounded=0;whiteSpace=wrap;html=1;" parent="1" vertex="1">
                    <mxGeometry x="540" y="500" width="150" height="80" as="geometry"/>
                </mxCell>
                <mxCell id="iOsyZ8hW2PodxWPjTbM5-12" value="" style="edgeStyle=orthogonalEdgeStyle;rounded=0;orthogonalLoop=1;jettySize=auto;html=1;" parent="1" source="iOsyZ8hW2PodxWPjTbM5-7" target="iOsyZ8hW2PodxWPjTbM5-11" edge="1">
                    <mxGeometry relative="1" as="geometry"/>
                </mxCell>
                <mxCell id="iOsyZ8hW2PodxWPjTbM5-7" value="&lt;div&gt;BUILDER&lt;/div&gt;&lt;div&gt;- Create a buffer of correct size&lt;/div&gt;&lt;div&gt;- Add values to message&lt;/div&gt;&lt;div&gt;- Format ph values correctly&lt;br&gt;&lt;/div&gt;" style="whiteSpace=wrap;html=1;rounded=0;" parent="1" vertex="1">
                    <mxGeometry x="540" y="290" width="220" height="80" as="geometry"/>
                </mxCell>
                <mxCell id="iOsyZ8hW2PodxWPjTbM5-16" style="edgeStyle=orthogonalEdgeStyle;rounded=0;orthogonalLoop=1;jettySize=auto;html=1;" parent="1" source="iOsyZ8hW2PodxWPjTbM5-11" target="iOsyZ8hW2PodxWPjTbM5-17" edge="1">
                    <mxGeometry relative="1" as="geometry">
                        <mxPoint x="950" y="160" as="targetPoint"/>
                    </mxGeometry>
                </mxCell>
                <mxCell id="iOsyZ8hW2PodxWPjTbM5-11" value="&lt;div&gt;PRINTER&lt;/div&gt;&lt;div&gt;- Print message to stdout&lt;br&gt;&lt;/div&gt;" style="whiteSpace=wrap;html=1;rounded=0;" parent="1" vertex="1">
                    <mxGeometry x="870" y="290" width="160" height="80" as="geometry"/>
                </mxCell>
                <mxCell id="iOsyZ8hW2PodxWPjTbM5-15" value="STOP PROGRAM" style="whiteSpace=wrap;html=1;rounded=0;" parent="1" vertex="1">
                    <mxGeometry x="870" y="500" width="160" height="80" as="geometry"/>
                </mxCell>
                <mxCell id="iOsyZ8hW2PodxWPjTbM5-17" value="&lt;div&gt;RETURN&lt;/div&gt;&lt;div&gt;- Number of printed characters&lt;br&gt;&lt;/div&gt;" style="rounded=0;whiteSpace=wrap;html=1;" parent="1" vertex="1">
                    <mxGeometry x="870" y="130" width="160" height="70" as="geometry"/>
                </mxCell>
                <mxCell id="5" style="edgeStyle=none;html=1;entryX=0;entryY=0.5;entryDx=0;entryDy=0;fontColor=#DCDCAA;" edge="1" parent="1" source="2" target="3">
                    <mxGeometry relative="1" as="geometry"/>
                </mxCell>
                <mxCell id="2" value="&lt;font color=&quot;#dcdcaa&quot; style=&quot;background-color: rgb(51 , 51 , 51)&quot;&gt;INPUT&lt;/font&gt;" style="ellipse;whiteSpace=wrap;html=1;" vertex="1" parent="1">
                    <mxGeometry x="10" y="-465" width="120" height="80" as="geometry"/>
                </mxCell>
                <mxCell id="9" value="" style="edgeStyle=none;html=1;fontColor=#DCDCAA;" edge="1" parent="1" source="3" target="8">
                    <mxGeometry relative="1" as="geometry"/>
                </mxCell>
                <mxCell id="3" value="&lt;div&gt;&lt;div style=&quot;font-family: &amp;#34;menlo&amp;#34; , &amp;#34;monaco&amp;#34; , &amp;#34;courier new&amp;#34; , monospace ; line-height: 18px&quot;&gt;&lt;span style=&quot;color: rgb(220 , 220 , 170) ; background-color: rgb(51 , 51 , 51)&quot;&gt;ft_printf(&lt;/span&gt;&lt;font color=&quot;#dcdcaa&quot; style=&quot;background-color: rgb(51 , 51 , 51)&quot;&gt;&lt;span style=&quot;font-family: &amp;#34;menlo&amp;#34; , &amp;#34;monaco&amp;#34; , &amp;#34;courier new&amp;#34; , monospace&quot;&gt;char&lt;/span&gt;&lt;span style=&quot;font-family: &amp;#34;menlo&amp;#34; , &amp;#34;monaco&amp;#34; , &amp;#34;courier new&amp;#34; , monospace&quot;&gt; &lt;/span&gt;&lt;span style=&quot;font-family: &amp;#34;menlo&amp;#34; , &amp;#34;monaco&amp;#34; , &amp;#34;courier new&amp;#34; , monospace&quot;&gt;const&lt;/span&gt;&lt;span style=&quot;font-family: &amp;#34;menlo&amp;#34; , &amp;#34;monaco&amp;#34; , &amp;#34;courier new&amp;#34; , monospace&quot;&gt; *&lt;/span&gt;&lt;span style=&quot;font-family: &amp;#34;menlo&amp;#34; , &amp;#34;monaco&amp;#34; , &amp;#34;courier new&amp;#34; , monospace&quot;&gt;msg&lt;/span&gt;&lt;span style=&quot;font-family: &amp;#34;menlo&amp;#34; , &amp;#34;monaco&amp;#34; , &amp;#34;courier new&amp;#34; , monospace&quot;&gt;, ...&lt;/span&gt;&lt;/font&gt;&lt;span style=&quot;color: rgb(220 , 220 , 170) ; background-color: rgb(51 , 51 , 51)&quot;&gt;)&lt;/span&gt;&lt;/div&gt;&lt;/div&gt;&lt;div style=&quot;font-family: &amp;#34;menlo&amp;#34; , &amp;#34;monaco&amp;#34; , &amp;#34;courier new&amp;#34; , monospace ; line-height: 18px&quot;&gt;&lt;span style=&quot;color: rgb(220 , 220 , 170) ; background-color: rgb(51 , 51 , 51)&quot;&gt;&lt;br&gt;&lt;/span&gt;&lt;/div&gt;&lt;div style=&quot;font-family: &amp;#34;menlo&amp;#34; , &amp;#34;monaco&amp;#34; , &amp;#34;courier new&amp;#34; , monospace ; line-height: 18px&quot;&gt;&lt;span style=&quot;color: rgb(220 , 220 , 170) ; background-color: rgb(51 , 51 , 51)&quot;&gt;-&amp;nbsp;&lt;/span&gt;&lt;font color=&quot;#dcdcaa&quot; style=&quot;background-color: rgb(51 , 51 , 51)&quot;&gt;&lt;span style=&quot;font-family: &amp;#34;menlo&amp;#34; , &amp;#34;monaco&amp;#34; , &amp;#34;courier new&amp;#34; , monospace&quot;&gt;int&lt;/span&gt;&lt;span style=&quot;font-family: &amp;#34;menlo&amp;#34; , &amp;#34;monaco&amp;#34; , &amp;#34;courier new&amp;#34; , monospace&quot;&gt;        &lt;/span&gt;&lt;span style=&quot;font-family: &amp;#34;menlo&amp;#34; , &amp;#34;monaco&amp;#34; , &amp;#34;courier new&amp;#34; , monospace&quot;&gt;count&lt;/span&gt;&lt;span style=&quot;font-family: &amp;#34;menlo&amp;#34; , &amp;#34;monaco&amp;#34; , &amp;#34;courier new&amp;#34; , monospace&quot;&gt;;&lt;/span&gt;&lt;/font&gt;&lt;/div&gt;&lt;div style=&quot;font-family: &amp;#34;menlo&amp;#34; , &amp;#34;monaco&amp;#34; , &amp;#34;courier new&amp;#34; , monospace ; line-height: 18px&quot;&gt;&lt;div&gt;    &lt;font color=&quot;#dcdcaa&quot; style=&quot;background-color: rgb(51 , 51 , 51)&quot;&gt;- t_list  **ph_list;&lt;/font&gt;&lt;/div&gt;&lt;div&gt;    &lt;font color=&quot;#dcdcaa&quot; style=&quot;background-color: rgb(51 , 51 , 51)&quot;&gt;- va_list args;&lt;/font&gt;&lt;/div&gt;&lt;div&gt;&lt;font color=&quot;#dcdcaa&quot; style=&quot;background-color: rgb(51 , 51 , 51)&quot;&gt;&lt;br&gt;&lt;/font&gt;&lt;/div&gt;&lt;div&gt;&lt;font color=&quot;#dcdcaa&quot; style=&quot;background-color: rgb(51 , 51 , 51)&quot;&gt;# ft_printf&lt;/font&gt;&lt;/div&gt;&lt;div&gt;&lt;font color=&quot;#dcdcaa&quot; style=&quot;background-color: rgb(51 , 51 , 51)&quot;&gt;# static void write_ph_list&lt;/font&gt;&lt;/div&gt;&lt;div&gt;&lt;font color=&quot;#dcdcaa&quot; style=&quot;background-color: rgb(51 , 51 , 51)&quot;&gt;&lt;br&gt;&lt;/font&gt;&lt;/div&gt;&lt;/div&gt;&lt;div style=&quot;font-family: &amp;#34;menlo&amp;#34; , &amp;#34;monaco&amp;#34; , &amp;#34;courier new&amp;#34; , monospace ; line-height: 18px ; color: rgb(212 , 212 , 212)&quot;&gt;&lt;span style=&quot;color: rgb(220 , 220 , 170) ; background-color: rgb(51 , 51 , 51)&quot;&gt;return (count)&lt;/span&gt;&lt;/div&gt;" style="rounded=0;whiteSpace=wrap;html=1;verticalAlign=top;align=left;spacingLeft=6;" vertex="1" parent="1">
                    <mxGeometry x="160" y="-535" width="270" height="220" as="geometry"/>
                </mxCell>
                <mxCell id="15" style="edgeStyle=none;html=1;entryX=0;entryY=0.5;entryDx=0;entryDy=0;fontColor=#DCDCAA;exitX=0.5;exitY=1;exitDx=0;exitDy=0;" edge="1" parent="1" source="8" target="14">
                    <mxGeometry relative="1" as="geometry">
                        <mxPoint x="557.5" y="-315" as="sourcePoint"/>
                        <Array as="points">
                            <mxPoint x="558" y="-235"/>
                        </Array>
                    </mxGeometry>
                </mxCell>
                <mxCell id="16" value="NO" style="edgeLabel;html=1;align=center;verticalAlign=middle;resizable=0;points=[];fontColor=#DCDCAA;" vertex="1" connectable="0" parent="15">
                    <mxGeometry x="-0.6408" y="-2" relative="1" as="geometry">
                        <mxPoint as="offset"/>
                    </mxGeometry>
                </mxCell>
                <mxCell id="19" style="edgeStyle=none;html=1;exitX=0.5;exitY=0;exitDx=0;exitDy=0;entryX=0;entryY=0.5;entryDx=0;entryDy=0;fontColor=#DCDCAA;" edge="1" parent="1" source="8" target="17">
                    <mxGeometry relative="1" as="geometry">
                        <Array as="points">
                            <mxPoint x="558" y="-665"/>
                        </Array>
                    </mxGeometry>
                </mxCell>
                <mxCell id="20" style="edgeStyle=none;html=1;exitX=0.5;exitY=0;exitDx=0;exitDy=0;entryX=0;entryY=0.5;entryDx=0;entryDy=0;fontColor=#DCDCAA;" edge="1" parent="1" source="8" target="18">
                    <mxGeometry relative="1" as="geometry">
                        <Array as="points">
                            <mxPoint x="558" y="-560"/>
                        </Array>
                    </mxGeometry>
                </mxCell>
                <mxCell id="8" value="&lt;span style=&quot;background-color: rgb(51 , 51 , 51)&quot;&gt;&lt;font color=&quot;#dcdcaa&quot;&gt;ph_list space allocated correctly?&lt;/font&gt;&lt;/span&gt;" style="rhombus;whiteSpace=wrap;html=1;align=center;verticalAlign=middle;rounded=0;spacingLeft=6;spacing=10;spacingRight=6;" vertex="1" parent="1">
                    <mxGeometry x="473" y="-509" width="169" height="169" as="geometry"/>
                </mxCell>
                <mxCell id="10" value="- Initiate va_list" style="whiteSpace=wrap;html=1;rounded=0;spacingLeft=6;spacing=10;spacingRight=6;align=left;" vertex="1" parent="1">
                    <mxGeometry x="710" y="-800" width="210" height="60" as="geometry"/>
                </mxCell>
                <mxCell id="14" value="return (count = 0)" style="whiteSpace=wrap;html=1;rounded=0;spacingLeft=6;spacing=10;spacingRight=6;" vertex="1" parent="1">
                    <mxGeometry x="710" y="-265" width="130" height="60" as="geometry"/>
                </mxCell>
                <mxCell id="22" value="" style="edgeStyle=none;html=1;fontColor=#DCDCAA;" edge="1" parent="1" source="17" target="21">
                    <mxGeometry relative="1" as="geometry"/>
                </mxCell>
                <mxCell id="17" value="&lt;div style=&quot;font-family: &amp;#34;menlo&amp;#34; , &amp;#34;monaco&amp;#34; , &amp;#34;courier new&amp;#34; , monospace ; line-height: 18px&quot;&gt;insert_ph_items&lt;/div&gt;" style="whiteSpace=wrap;html=1;rounded=0;spacingLeft=6;spacing=10;spacingRight=6;align=left;" vertex="1" parent="1">
                    <mxGeometry x="710" y="-730" width="210" height="130" as="geometry"/>
                </mxCell>
                <mxCell id="18" value="write_msg" style="whiteSpace=wrap;html=1;rounded=0;spacingLeft=6;spacing=10;spacingRight=6;align=left;" vertex="1" parent="1">
                    <mxGeometry x="710" y="-590" width="210" height="60" as="geometry"/>
                </mxCell>
                <mxCell id="11" value="" style="edgeStyle=none;html=1;fontColor=#DCDCAA;exitX=0.5;exitY=0;exitDx=0;exitDy=0;entryX=0;entryY=0.5;entryDx=0;entryDy=0;" edge="1" parent="1" source="8" target="10">
                    <mxGeometry relative="1" as="geometry">
                        <mxPoint x="640" y="-620" as="targetPoint"/>
                        <Array as="points">
                            <mxPoint x="558" y="-770"/>
                        </Array>
                    </mxGeometry>
                </mxCell>
                <mxCell id="12" value="YES" style="edgeLabel;html=1;align=center;verticalAlign=middle;resizable=0;points=[];fontColor=#DCDCAA;" vertex="1" connectable="0" parent="11">
                    <mxGeometry x="-0.4062" y="-2" relative="1" as="geometry">
                        <mxPoint x="-2" y="97" as="offset"/>
                    </mxGeometry>
                </mxCell>
                <mxCell id="21" value="&lt;div style=&quot;font-family: &amp;quot;menlo&amp;quot; , &amp;quot;monaco&amp;quot; , &amp;quot;courier new&amp;quot; , monospace ; line-height: 18px&quot;&gt;&lt;font color=&quot;#ffffff&quot;&gt;PH_SYMBOL == msg[i] &amp;amp;&amp;amp; is_valid_format(&amp;amp;msg[i + 1])&lt;/font&gt;&lt;/div&gt;" style="rhombus;whiteSpace=wrap;html=1;align=center;rounded=0;spacingLeft=6;spacing=10;spacingRight=6;" vertex="1" parent="1">
                    <mxGeometry x="980" y="-790" width="250" height="250" as="geometry"/>
                </mxCell>
            </root>
        </mxGraphModel>
    </diagram>
</mxfile>